<svg width="16" height="12" viewBox="0 0 16 12" fill="none" xmlns="http://www.w3.org/2000/svg">
<path d="M8.10938 3.4082C8.16016 3.35742 8.23633 3.33203 8.3125 3.33203C8.36328 3.33203 8.43945 3.35742 8.49023 3.4082L13.1875 7.24219V11.4062C13.1875 11.6348 12.9844 11.8125 12.7812 11.8125H9.91211C9.70898 11.8125 9.50586 11.6348 9.50586 11.4062V8.96875C9.50586 8.76562 9.32812 8.5625 9.09961 8.5625H7.47461C7.27148 8.5625 7.06836 8.76562 7.06836 8.96875V11.4062C7.06836 11.6348 6.89062 11.8125 6.6875 11.8125H3.84375C3.61523 11.8125 3.4375 11.6348 3.4375 11.4062V7.26758L8.10938 3.4082ZM15.498 6.02344C15.5742 6.07422 15.625 6.17578 15.625 6.25195C15.625 6.32812 15.5996 6.4043 15.5488 6.45508L14.8887 7.24219C14.8379 7.31836 14.7617 7.34375 14.6602 7.34375C14.584 7.34375 14.5078 7.31836 14.457 7.26758L8.49023 2.36719C8.43945 2.31641 8.36328 2.29102 8.3125 2.29102C8.23633 2.29102 8.16016 2.31641 8.10938 2.36719L2.14258 7.26758C2.0918 7.31836 2.01562 7.34375 1.93945 7.34375C1.83789 7.34375 1.76172 7.31836 1.71094 7.24219L1.05078 6.45508C1.02539 6.4043 0.974609 6.32812 0.974609 6.25195C0.974609 6.17578 1.02539 6.07422 1.10156 6.02344L7.52539 0.716797C7.72852 0.564453 8.00781 0.462891 8.3125 0.462891C8.5918 0.462891 8.87109 0.564453 9.07422 0.716797L11.3594 2.5957V0.767578C11.3594 0.589844 11.4863 0.462891 11.6641 0.462891H13.0859C13.2383 0.462891 13.3906 0.589844 13.3906 0.767578V4.27148L15.498 6.02344Z" fill="white"/>
</svg>
