<svg width="13" height="15" viewBox="0 0 13 15" fill="none" xmlns="http://www.w3.org/2000/svg">
<path d="M0.328125 6C0.136719 6 0 6.16406 0 6.32812V13.4375C0 14.1758 0.574219 14.75 1.3125 14.75H10.9375C11.6484 14.75 12.25 14.1758 12.25 13.4375V6.32812C12.25 6.16406 12.0859 6 11.9219 6H0.328125ZM12.25 4.79688V3.8125C12.25 3.10156 11.6484 2.5 10.9375 2.5H9.625V1.07812C9.625 0.914062 9.46094 0.75 9.29688 0.75H8.20312C8.01172 0.75 7.875 0.914062 7.875 1.07812V2.5H4.375V1.07812C4.375 0.914062 4.21094 0.75 4.04688 0.75H2.95312C2.76172 0.75 2.625 0.914062 2.625 1.07812V2.5H1.3125C0.574219 2.5 0 3.10156 0 3.8125V4.79688C0 4.98828 0.136719 5.125 0.328125 5.125H11.9219C12.0859 5.125 12.25 4.98828 12.25 4.79688Z" fill="white"/>
</svg>
