<svg width="14" height="13" viewBox="0 0 14 13" fill="none" xmlns="http://www.w3.org/2000/svg">
<path d="M7.125 3.60571C8.84766 3.60571 10.2695 5.02759 10.2695 6.75024C10.2695 8.50024 8.84766 9.89478 7.125 9.89478C5.375 9.89478 3.98047 8.50024 3.98047 6.75024C3.98047 5.02759 5.375 3.60571 7.125 3.60571ZM7.125 8.80103C8.24609 8.80103 9.14844 7.89868 9.14844 6.75024C9.14844 5.62915 8.24609 4.72681 7.125 4.72681C5.97656 4.72681 5.07422 5.62915 5.07422 6.75024C5.07422 7.89868 6.00391 8.80103 7.125 8.80103ZM11.1172 3.49634C11.1172 3.08618 10.7891 2.75806 10.3789 2.75806C9.96875 2.75806 9.64062 3.08618 9.64062 3.49634C9.64062 3.90649 9.96875 4.23462 10.3789 4.23462C10.7891 4.23462 11.1172 3.90649 11.1172 3.49634ZM13.1953 4.23462C13.25 5.24634 13.25 8.28149 13.1953 9.29321C13.1406 10.2776 12.9219 11.1252 12.2109 11.8635C11.5 12.5745 10.625 12.7932 9.64062 12.8479C8.62891 12.9026 5.59375 12.9026 4.58203 12.8479C3.59766 12.7932 2.75 12.5745 2.01172 11.8635C1.30078 11.1252 1.08203 10.2776 1.02734 9.29321C0.972656 8.28149 0.972656 5.24634 1.02734 4.23462C1.08203 3.25024 1.30078 2.37524 2.01172 1.66431C2.75 0.953369 3.59766 0.734619 4.58203 0.679932C5.59375 0.625244 8.62891 0.625244 9.64062 0.679932C10.625 0.734619 11.5 0.953369 12.2109 1.66431C12.9219 2.37524 13.1406 3.25024 13.1953 4.23462ZM11.8828 10.3596C12.2109 9.56665 12.1289 7.65259 12.1289 6.75024C12.1289 5.87524 12.2109 3.96118 11.8828 3.14087C11.6641 2.62134 11.2539 2.18384 10.7344 1.99243C9.91406 1.66431 8 1.74634 7.125 1.74634C6.22266 1.74634 4.30859 1.66431 3.51562 1.99243C2.96875 2.21118 2.55859 2.62134 2.33984 3.14087C2.01172 3.96118 2.09375 5.87524 2.09375 6.75024C2.09375 7.65259 2.01172 9.56665 2.33984 10.3596C2.55859 10.9065 2.96875 11.3167 3.51562 11.5354C4.30859 11.8635 6.22266 11.7815 7.125 11.7815C8 11.7815 9.91406 11.8635 10.7344 11.5354C11.2539 11.3167 11.6914 10.9065 11.8828 10.3596Z" fill="#82869A"/>
</svg>
