<svg width="76" height="60" viewBox="0 0 76 60" fill="none" xmlns="http://www.w3.org/2000/svg">
<g clip-path="url(#clip0_501_2034)">
<path d="M37.6813 0L75.1812 22.5147V37.4795L37.6813 60L0.181152 37.4795V22.5149L37.6813 0Z" fill="white"/>
<path fill-rule="evenodd" clip-rule="evenodd" d="M0.181152 22.5147L37.6812 0L75.1812 22.5147V37.4795L37.6812 60L0.181152 37.4795V22.5147ZM37.6812 50.4465L67.2262 32.7033V27.2927L67.2247 27.2917L37.6812 45.0295L8.13754 27.2917L8.1361 27.2927V32.7033L37.6812 50.4465ZM37.6812 36.7569L60.3339 23.1564L54.8155 19.8447L37.6812 30.1322L20.5468 19.8447L15.0285 23.1564L37.6812 36.7569ZM37.6812 21.8595L47.9247 15.7094L37.6812 9.56201L27.4377 15.7094L37.6812 21.8595Z" fill="#A2A3AD"/>
<path d="M37.6813 0L0.181152 22.5149V37.4795L37.6812 60L37.6813 0Z" fill="white" fill-opacity="0.3"/>
</g>
<defs>
<clipPath id="clip0_501_2034">
<rect width="75" height="60" fill="white" transform="translate(0.181152)"/>
</clipPath>
</defs>
</svg>
