<svg width="317" height="1200" viewBox="0 0 317 548" fill="none" xmlns="http://www.w3.org/2000/svg">
<g opacity="0.05">
<path d="M0.000106812 151.084V150.612L126.413 3.69054e-06L252.159 0L126.08 150.215L252.159 300.43H125.35L0.000106812 151.084Z" fill="white"/>
<path d="M0.000106812 451.514V451.041L126.413 300.43L252.159 300.43L126.08 450.644L252.159 600.859H125.35L0.000106812 451.514Z" fill="white"/>
</g>
<path opacity="0.2" d="M191.487 300.93L65.3409 451.223V451.332L190.424 600.359H315.928L190.537 450.966L190.268 450.644L190.537 450.323L315.928 300.93H191.487ZM315.928 299.93L190.537 150.536L190.268 150.215L190.537 149.893L315.928 0.5L191.487 0.500004L65.3409 150.794V150.902L190.424 299.93L191.02 299.93H191.254L315.928 299.93Z" stroke="#FF5E3A"/>
</svg>
