<svg width="14" height="12" viewBox="0 0 14 12" fill="none" xmlns="http://www.w3.org/2000/svg">
<path d="M12.5508 2.90649C12.5508 3.04321 12.5508 3.15259 12.5508 3.28931C12.5508 7.09009 9.67969 11.4377 4.40234 11.4377C2.76172 11.4377 1.25781 10.9729 0 10.1526C0.21875 10.1799 0.4375 10.2073 0.683594 10.2073C2.02344 10.2073 3.25391 9.74243 4.23828 8.97681C2.98047 8.94946 1.91406 8.12915 1.55859 6.98071C1.75 7.00806 1.91406 7.0354 2.10547 7.0354C2.35156 7.0354 2.625 6.98071 2.84375 6.92603C1.53125 6.65259 0.546875 5.50415 0.546875 4.10962V4.08228C0.929688 4.30103 1.39453 4.4104 1.85938 4.43774C1.06641 3.91821 0.574219 3.04321 0.574219 2.05884C0.574219 1.51196 0.710938 1.01978 0.957031 0.609619C2.37891 2.33228 4.51172 3.48071 6.89062 3.61743C6.83594 3.39868 6.80859 3.17993 6.80859 2.96118C6.80859 1.37524 8.09375 0.0900879 9.67969 0.0900879C10.5 0.0900879 11.2383 0.418213 11.7852 0.992432C12.4141 0.855713 13.043 0.609619 13.5898 0.281494C13.3711 0.965088 12.9336 1.51196 12.332 1.86743C12.9062 1.81274 13.4805 1.64868 13.9727 1.42993C13.5898 2.00415 13.0977 2.49634 12.5508 2.90649Z" fill="#82869A"/>
</svg>
