<svg width="32" height="27" viewBox="0 0 32 27" fill="none" xmlns="http://www.w3.org/2000/svg">
<path d="M10.3459 0.295284C11.3083 -0.185919 12.0568 -0.0789853 12.5915 0.616086C13.2331 1.52503 13.1261 2.3003 12.2707 2.9419C10.934 3.95777 9.67753 5.02711 8.50125 6.14992C7.32498 7.27273 6.41604 8.7698 5.77444 10.6411C5.45363 11.6036 5.37343 12.459 5.53383 13.2076C5.7477 13.9561 6.41604 14.3838 7.53885 14.4908C9.41019 14.7046 10.934 15.266 12.1103 16.175C13.2865 17.0839 13.8747 18.4473 13.8747 20.2652C13.8747 21.7623 13.3133 23.099 12.1905 24.2752C11.0677 25.4515 9.49039 26.0396 7.45865 26.0396C5.48037 26.0396 3.74269 25.2376 2.24561 23.6336C0.748538 21.9762 0 19.8375 0 17.2176C0 14.6512 0.507936 12.3254 1.52381 10.2401C2.53968 8.10147 3.84962 6.20339 5.45363 4.54591C7.05764 2.88844 8.68839 1.47156 10.3459 0.295284ZM28.4712 0.295284C29.4336 -0.185919 30.1821 -0.0789853 30.7168 0.616086C31.3584 1.52503 31.2515 2.3003 30.396 2.9419C29.0593 3.95777 27.8028 5.02711 26.6266 6.14992C25.4503 7.27273 24.5414 8.7698 23.8997 10.6411C23.5789 11.6036 23.4987 12.459 23.6591 13.2076C23.873 13.9561 24.5414 14.3838 25.6642 14.4908C27.5355 14.7046 29.0593 15.266 30.2356 16.175C31.4119 17.0839 32 18.4473 32 20.2652C32 21.7623 31.4386 23.099 30.3158 24.2752C29.193 25.4515 27.6157 26.0396 25.584 26.0396C23.6057 26.0396 21.868 25.2376 20.3709 23.6336C18.8739 21.9762 18.1253 19.8375 18.1253 17.2176C18.1253 14.6512 18.6333 12.3254 19.6491 10.2401C20.665 8.10147 21.9749 6.20339 23.5789 4.54591C25.183 2.88844 26.8137 1.47156 28.4712 0.295284Z" fill="#FF5E3A"/>
</svg>
