<svg width="90" height="60" viewBox="0 0 90 60" fill="none" xmlns="http://www.w3.org/2000/svg">
<path d="M57.5702 29.3877C57.5702 44.6037 45.2352 56.9387 30.0192 56.9387C14.8033 56.9387 2.46826 44.6037 2.46826 29.3877C2.46826 14.1717 14.8033 1.83667 30.0192 1.83667C45.2352 1.83667 57.5702 14.1717 57.5702 29.3877Z" fill="#A2A3AD"/>
<path d="M87.2821 29.3877C87.2821 44.6037 75.0678 56.9387 60.0011 56.9387C44.9344 56.9387 32.7202 44.6037 32.7202 29.3877C32.7202 14.1717 44.9344 1.83667 60.0011 1.83667C75.0678 1.83667 87.2821 14.1717 87.2821 29.3877Z" fill="#CCCED8"/>
<path d="M45.0839 52.4592C52.6027 47.5395 57.5701 39.0439 57.5701 29.3878C57.5701 19.732 52.6027 11.2362 45.0839 6.31665C37.6389 11.2362 32.7202 19.732 32.7202 29.3878C32.7202 39.0439 37.6389 47.5395 45.0839 52.4592Z" fill="#A2A3AD"/>
</svg>
