<svg width="61" height="60" viewBox="0 0 61 60" fill="none" xmlns="http://www.w3.org/2000/svg">
<path d="M30.6611 56.9639C23.5065 56.9639 16.6444 54.1242 11.582 49.0685C6.51952 44.0128 3.67067 37.1544 3.66113 29.9999V2.96387H57.6611V29.9999C57.6516 37.1544 54.8027 44.0128 49.7403 49.0685C44.6778 54.1242 37.8157 56.9639 30.6611 56.9639Z" stroke="#A2A3AD" stroke-width="1.6" stroke-miterlimit="10"/>
<path d="M30.6612 52.956C24.3182 52.956 18.235 50.4364 13.7499 45.9512C9.26483 41.4661 6.74512 35.383 6.74512 29.04V5.12402H54.5651V29.04C54.5651 35.3809 52.0471 41.4622 47.5645 45.9469C43.082 50.4317 37.0019 52.9529 30.6612 52.956Z" stroke="#A2A3AD" stroke-width="1.6" stroke-miterlimit="10"/>
<path d="M30.6613 48.9362C27.9215 48.9425 25.2075 48.4083 22.6744 47.3642C20.1415 46.3201 17.8392 44.7867 15.8998 42.8516C13.9602 40.9166 12.4215 38.6179 11.3716 36.0873C10.3217 33.5568 9.78124 30.8439 9.78125 28.1042V7.28418H51.4813V28.1042C51.4828 30.8393 50.9455 33.5479 49.8999 36.0753C48.8543 38.6027 47.321 40.8993 45.3874 42.8339C43.454 44.7685 41.1583 46.3032 38.6315 47.3502C36.1047 48.3973 33.3964 48.9362 30.6613 48.9362Z" stroke="#A2A3AD" stroke-width="1.6" stroke-miterlimit="10"/>
<path d="M30.6611 44.9161C25.9561 44.9161 21.4436 43.048 18.1156 39.7222C14.7875 36.3964 12.9162 31.8851 12.9131 27.1801V9.43213H48.3971V27.1801C48.3971 31.884 46.5284 36.3953 43.2023 39.7213C39.8761 43.0475 35.365 44.9161 30.6611 44.9161Z" stroke="#A2A3AD" stroke-width="1.6" stroke-miterlimit="10"/>
<path d="M30.6611 40.9078C26.7719 40.9078 23.042 39.3629 20.292 36.6129C17.5421 33.8628 15.9971 30.133 15.9971 26.2438V11.5918H45.3131V26.2438C45.3131 30.1308 43.7697 33.8589 41.0223 36.6085C38.2748 39.3582 34.5481 40.9047 30.6611 40.9078Z" stroke="#A2A3AD" stroke-width="1.6" stroke-miterlimit="10"/>
<path d="M30.6611 36.888C27.5919 36.888 24.6483 35.6695 22.4771 33.5005C20.3057 31.3314 19.0843 28.3891 19.0811 25.32V13.752H42.1811V25.32C42.1779 28.3786 40.9647 31.3119 38.8064 33.4794C36.648 35.6467 33.7197 36.8721 30.6611 36.888Z" stroke="#A2A3AD" stroke-width="1.6" stroke-miterlimit="10"/>
<path d="M30.661 32.8799C28.4078 32.8799 26.2467 31.9848 24.6535 30.3915C23.0601 28.7982 22.165 26.6371 22.165 24.3839V15.8999H39.145V24.3839C39.145 26.6351 38.2516 28.7943 36.6609 30.3873C35.0702 31.9803 32.9122 32.8767 30.661 32.8799Z" stroke="#A2A3AD" stroke-width="1.6" stroke-miterlimit="10"/>
<path d="M30.6612 28.8601C29.2292 28.8601 27.8556 28.2911 26.8428 27.2785C25.8302 26.2658 25.2612 24.8923 25.2612 23.4601V18.0601H36.0612V23.4601C36.0581 24.8913 35.4881 26.263 34.4762 27.275C33.4641 28.2871 32.0925 28.8569 30.6612 28.8601Z" stroke="#A2A3AD" stroke-width="1.6" stroke-miterlimit="10"/>
</svg>
