<svg width="79" height="15" viewBox="0 0 79 15" fill="none" xmlns="http://www.w3.org/2000/svg">
<path d="M10.418 4.89868L14.3281 5.4729C14.6562 5.52759 14.9297 5.74634 15.0391 6.07446C15.1484 6.37524 15.0664 6.73071 14.8203 6.94946L11.9766 9.76587L12.6602 13.7581C12.7148 14.0862 12.5781 14.4143 12.3047 14.6057C12.0312 14.8245 11.6758 14.8245 11.375 14.6877L7.875 12.801L4.34766 14.6877C4.07422 14.8245 3.69141 14.8245 3.44531 14.6057C3.17188 14.4143 3.03516 14.0862 3.08984 13.7581L3.74609 9.76587L0.902344 6.94946C0.65625 6.73071 0.574219 6.37524 0.683594 6.07446C0.792969 5.74634 1.06641 5.52759 1.39453 5.4729L5.33203 4.89868L7.08203 1.26196C7.21875 0.961182 7.51953 0.769775 7.875 0.769775C8.20312 0.769775 8.50391 0.961182 8.64062 1.26196L10.418 4.89868ZM26.168 4.89868L30.0781 5.4729C30.4062 5.52759 30.6797 5.74634 30.7891 6.07446C30.8984 6.37524 30.8164 6.73071 30.5703 6.94946L27.7266 9.76587L28.4102 13.7581C28.4648 14.0862 28.3281 14.4143 28.0547 14.6057C27.7812 14.8245 27.4258 14.8245 27.125 14.6877L23.625 12.801L20.0977 14.6877C19.8242 14.8245 19.4414 14.8245 19.1953 14.6057C18.9219 14.4143 18.7852 14.0862 18.8398 13.7581L19.4961 9.76587L16.6523 6.94946C16.4062 6.73071 16.3242 6.37524 16.4336 6.07446C16.543 5.74634 16.8164 5.52759 17.1445 5.4729L21.082 4.89868L22.832 1.26196C22.9688 0.961182 23.2695 0.769775 23.625 0.769775C23.9531 0.769775 24.2539 0.961182 24.3906 1.26196L26.168 4.89868ZM41.918 4.89868L45.8281 5.4729C46.1562 5.52759 46.4297 5.74634 46.5391 6.07446C46.6484 6.37524 46.5664 6.73071 46.3203 6.94946L43.4766 9.76587L44.1602 13.7581C44.2148 14.0862 44.0781 14.4143 43.8047 14.6057C43.5312 14.8245 43.1758 14.8245 42.875 14.6877L39.375 12.801L35.8477 14.6877C35.5742 14.8245 35.1914 14.8245 34.9453 14.6057C34.6719 14.4143 34.5352 14.0862 34.5898 13.7581L35.2461 9.76587L32.4023 6.94946C32.1562 6.73071 32.0742 6.37524 32.1836 6.07446C32.293 5.74634 32.5664 5.52759 32.8945 5.4729L36.832 4.89868L38.582 1.26196C38.7188 0.961182 39.0195 0.769775 39.375 0.769775C39.7031 0.769775 40.0039 0.961182 40.1406 1.26196L41.918 4.89868ZM57.668 4.89868L61.5781 5.4729C61.9062 5.52759 62.1797 5.74634 62.2891 6.07446C62.3984 6.37524 62.3164 6.73071 62.0703 6.94946L59.2266 9.76587L59.9102 13.7581C59.9648 14.0862 59.8281 14.4143 59.5547 14.6057C59.2812 14.8245 58.9258 14.8245 58.625 14.6877L55.125 12.801L51.5977 14.6877C51.3242 14.8245 50.9414 14.8245 50.6953 14.6057C50.4219 14.4143 50.2852 14.0862 50.3398 13.7581L50.9961 9.76587L48.1523 6.94946C47.9062 6.73071 47.8242 6.37524 47.9336 6.07446C48.043 5.74634 48.3164 5.52759 48.6445 5.4729L52.582 4.89868L54.332 1.26196C54.4688 0.961182 54.7695 0.769775 55.125 0.769775C55.4531 0.769775 55.7539 0.961182 55.8906 1.26196L57.668 4.89868ZM73.418 4.89868L77.3281 5.4729C77.6562 5.52759 77.9297 5.74634 78.0391 6.07446C78.1484 6.37524 78.0664 6.73071 77.8203 6.94946L74.9766 9.76587L75.6602 13.7581C75.7148 14.0862 75.5781 14.4143 75.3047 14.6057C75.0312 14.8245 74.6758 14.8245 74.375 14.6877L70.875 12.801L67.3477 14.6877C67.0742 14.8245 66.6914 14.8245 66.4453 14.6057C66.1719 14.4143 66.0352 14.0862 66.0898 13.7581L66.7461 9.76587L63.9023 6.94946C63.6562 6.73071 63.5742 6.37524 63.6836 6.07446C63.793 5.74634 64.0664 5.52759 64.3945 5.4729L68.332 4.89868L70.082 1.26196C70.2188 0.961182 70.5195 0.769775 70.875 0.769775C71.2031 0.769775 71.5039 0.961182 71.6406 1.26196L73.418 4.89868Z" fill="#FF5E3A"/>
</svg>
