<svg width="62" height="60" viewBox="0 0 62 60" fill="none" xmlns="http://www.w3.org/2000/svg">
<path d="M31.1938 15.9375C31.1938 23.704 24.8979 30 17.1313 30H3.06885V15.9375C3.06885 8.17099 9.36484 1.875 17.1313 1.875C24.8979 1.875 31.1938 8.17099 31.1938 15.9375Z" fill="#A2A3AD"/>
<path d="M31.1938 44.0625C31.1938 36.296 37.4898 30 45.2563 30H59.3188V44.0625C59.3188 51.829 53.0229 58.125 45.2563 58.125C37.4898 58.125 31.1938 51.829 31.1938 44.0625Z" fill="#A2A3AD"/>
<path d="M3.06885 44.0625C3.06885 51.829 9.36484 58.125 17.1313 58.125H31.1938V44.0625C31.1938 36.296 24.8979 30 17.1313 30C9.36484 30 3.06885 36.296 3.06885 44.0625Z" fill="#CCCED8"/>
<path d="M59.3188 15.9375C59.3188 8.17099 53.0229 1.875 45.2563 1.875H31.1938V15.9375C31.1938 23.704 37.4898 30 45.2563 30C53.0229 30 59.3188 23.704 59.3188 15.9375Z" fill="#CCCED8"/>
</svg>
