<svg width="91" height="60" viewBox="0 0 91 60" fill="none" xmlns="http://www.w3.org/2000/svg">
<g clip-path="url(#clip0_501_2010)">
<path d="M84.5562 1.87499C84.5562 2.91053 85.3956 3.74999 86.4312 3.74999H88.3062C89.3418 3.74999 90.1812 2.91053 90.1812 1.87499C90.1812 0.839467 89.3418 0 88.3062 0H86.4312C85.3956 0 84.5562 0.839467 84.5562 1.87499Z" fill="#A2A3AD"/>
<path d="M30.1812 60H39.2896L36.6379 57.3483C35.9347 56.6451 34.9809 56.25 33.9864 56.25H30.1812C15.6837 56.25 3.93115 44.4975 3.93115 30C3.93115 15.5025 15.6837 3.75002 30.1812 3.75H60.1812C74.6787 3.75 86.4312 15.5025 86.4312 30C86.4312 44.4975 74.6787 56.25 60.1812 56.25H48.9588C47.4669 56.25 46.0362 55.6573 44.9812 54.6025L41.8747 51.4959C40.1166 49.7378 37.7319 48.75 35.2455 48.75H30.1812C19.8258 48.75 11.4312 40.3554 11.4312 30C11.4312 19.6446 19.8258 11.25 30.1812 11.25H60.1812C70.5366 11.25 78.9312 19.6446 78.9312 30C78.9312 40.3554 70.5366 48.75 60.1812 48.75H52.9753C51.4834 48.75 50.0527 48.1573 48.9978 47.1025L45.8911 43.9959C44.133 42.2378 41.7484 41.25 39.262 41.25H30.1812C23.968 41.25 18.9312 36.2132 18.9312 30C18.9312 23.7868 23.968 18.75 30.1812 18.75H60.1812C66.3943 18.75 71.4312 23.7868 71.4312 30C71.4312 36.1374 66.5164 41.127 60.408 41.2477L60.4068 41.25H57.6628C56.1709 41.25 54.7402 40.6573 53.6853 39.6025L50.5786 36.4959C49.1361 35.0532 47.2717 34.1293 45.2754 33.8442L45.1812 33.75H30.1812C28.1101 33.75 26.4312 32.071 26.4312 30C26.4312 27.9289 28.1101 26.25 30.1812 26.25H60.1812C62.2522 26.25 63.9312 27.9289 63.9312 30C63.9312 32.071 62.2522 33.75 60.1812 33.75H52.6812L55.3329 36.4017C56.0361 37.1049 56.9899 37.5 57.9844 37.5H60.1812C64.3233 37.5 67.6812 34.1421 67.6812 30C67.6812 25.8579 64.3233 22.5 60.1812 22.5H30.1812C26.0391 22.5 22.6812 25.8579 22.6812 30C22.6812 34.1421 26.0391 37.5 30.1812 37.5H43.9495C45.4414 37.5 46.8721 38.0927 47.9271 39.1475L51.0337 42.2541C52.7919 44.0122 55.1764 45 57.6628 45H61.1187V44.9712C68.9662 44.4873 75.1812 37.9693 75.1812 30C75.1812 21.7158 68.4654 15 60.1812 15H30.1812C21.897 15 15.1812 21.7158 15.1812 30C15.1812 38.2844 21.897 45 30.1812 45H39.262C40.7539 45 42.1846 45.5927 43.2396 46.6475L46.3462 49.7541C48.1044 51.5122 50.4889 52.5 52.9753 52.5H60.1812C72.6076 52.5 82.6812 42.4264 82.6812 30C82.6812 17.5736 72.6076 7.5 60.1812 7.5H30.1812C17.7547 7.5 7.68115 17.5736 7.68115 30C7.68115 42.4264 17.7547 52.5 30.1812 52.5H35.2455C36.7374 52.5 38.1681 53.0927 39.223 54.1475L42.3297 57.2541C44.0878 59.0122 46.4724 60 48.9588 60H60.1812C76.7497 60 90.1812 46.5686 90.1812 30C90.1812 13.4314 76.7497 -1.44847e-06 60.1812 0L30.1812 6.19896e-06C13.6126 7.64743e-06 0.181151 13.4315 0.181152 30C0.181154 46.5686 13.6126 60 30.1812 60Z" fill="#A2A3AD"/>
</g>
<defs>
<clipPath id="clip0_501_2010">
<rect width="90" height="60" fill="white" transform="translate(0.181152)"/>
</clipPath>
</defs>
</svg>
