<svg width="13" height="13" viewBox="0 0 13 13" fill="none" xmlns="http://www.w3.org/2000/svg">
<path d="M11.375 0.625244C11.8398 0.625244 12.25 1.0354 12.25 1.52759V12.0002C12.25 12.4924 11.8398 12.8752 11.375 12.8752H0.847656C0.382812 12.8752 0 12.4924 0 12.0002V1.52759C0 1.0354 0.382812 0.625244 0.847656 0.625244H11.375ZM3.69141 11.1252V5.30103H1.88672V11.1252H3.69141ZM2.78906 4.48071C3.36328 4.48071 3.82812 4.01587 3.82812 3.44165C3.82812 2.86743 3.36328 2.37524 2.78906 2.37524C2.1875 2.37524 1.72266 2.86743 1.72266 3.44165C1.72266 4.01587 2.1875 4.48071 2.78906 4.48071ZM10.5 11.1252V7.92603C10.5 6.36743 10.1445 5.13696 8.3125 5.13696C7.4375 5.13696 6.83594 5.62915 6.58984 6.09399H6.5625V5.30103H4.83984V11.1252H6.64453V8.25415C6.64453 7.48853 6.78125 6.75024 7.73828 6.75024C8.66797 6.75024 8.66797 7.62524 8.66797 8.28149V11.1252H10.5Z" fill="#82869A"/>
</svg>
