<svg width="61" height="60" viewBox="0 0 61 60" fill="none" xmlns="http://www.w3.org/2000/svg">
<path d="M33.2183 48.1673C33.2722 42.6602 31.876 38.1818 30.1 38.1644C28.3239 38.1471 26.8404 42.5974 26.7867 48.1044C26.7328 53.6116 28.129 58.0901 29.905 58.1074C31.6811 58.1248 33.1645 53.6745 33.2183 48.1673Z" fill="#A2A3AD"/>
<path d="M22.9174 46.9166C25.9404 42.3129 27.1873 37.7906 25.7026 36.8157C24.2179 35.8409 20.5638 38.7825 17.541 43.3862C14.518 47.9899 13.2711 52.5121 14.7558 53.4871C16.2405 54.462 19.8945 51.5203 22.9174 46.9166Z" fill="#A2A3AD"/>
<path d="M14.9161 40.3117C19.9482 38.0734 23.4422 34.9433 22.7203 33.3205C21.9985 31.6976 17.3341 32.1965 12.302 34.4349C7.26999 36.6731 3.77591 39.8032 4.49777 41.4261C5.21962 43.049 9.88407 42.55 14.9161 40.3117Z" fill="#A2A3AD"/>
<path d="M22.1163 28.7694C22.3865 27.0139 18.1929 24.9116 12.7497 24.0738C7.30633 23.2359 2.67464 23.9799 2.40445 25.7354C2.13425 27.4909 6.32787 29.593 11.7712 30.4309C17.2144 31.2687 21.8461 30.5247 22.1163 28.7694Z" fill="#A2A3AD"/>
<path d="M24.0708 24.5874C25.247 23.2566 22.8552 19.2211 18.7285 15.574C14.6018 11.9268 10.303 10.0491 9.12673 11.38C7.95052 12.7109 10.3424 16.7464 14.4691 20.3935C18.5958 24.0407 22.8946 25.9183 24.0708 24.5874Z" fill="#A2A3AD"/>
<path d="M27.9629 22.1433C29.6719 21.6597 29.8417 16.9717 28.3422 11.6724C26.8427 6.37312 24.2416 2.46924 22.5325 2.95285C20.8235 3.43646 20.6537 8.12443 22.1532 13.4238C23.6527 18.723 26.2538 22.6269 27.9629 22.1433Z" fill="#A2A3AD"/>
<path d="M38.5313 13.5886C40.1351 8.31986 40.0578 3.62944 38.3586 3.11223C36.6594 2.595 33.9819 6.44684 32.3781 11.7155C30.7744 16.9842 30.8517 21.6747 32.5509 22.1919C34.2501 22.7091 36.9276 18.8573 38.5313 13.5886Z" fill="#A2A3AD"/>
<path d="M46.083 20.7079C50.2803 17.1421 52.7506 13.1541 51.6005 11.8005C50.4506 10.4469 46.1158 12.2403 41.9187 15.806C37.7214 19.3718 35.2512 23.3597 36.4012 24.7133C37.5512 26.0669 41.8859 24.2737 46.083 20.7079Z" fill="#A2A3AD"/>
<path d="M48.58 30.7823C54.0388 30.052 58.273 28.0329 58.0375 26.2723C57.802 24.5119 53.1859 23.6769 47.7271 24.4071C42.2684 25.1374 38.0341 27.1565 38.2696 28.917C38.5052 30.6774 43.1212 31.5126 48.58 30.7823Z" fill="#A2A3AD"/>
<path d="M55.6215 41.9293C56.3752 40.3211 52.9435 37.1227 47.9566 34.7856C42.9697 32.4484 38.316 31.8577 37.5623 33.4659C36.8086 35.0743 40.2402 38.2726 45.2272 40.6098C50.214 42.9468 54.8677 43.5377 55.6215 41.9293Z" fill="#A2A3AD"/>
<path d="M45.1316 53.7959C46.6352 52.8505 45.4777 48.3044 42.5462 43.6421C39.6147 38.9797 36.0193 35.9666 34.5157 36.912C33.0121 37.8574 34.1696 42.4034 37.1011 47.0658C40.0326 51.7282 43.628 54.7414 45.1316 53.7959Z" fill="#A2A3AD"/>
</svg>
