<svg width="16" height="11" viewBox="0 0 16 11" fill="none" xmlns="http://www.w3.org/2000/svg">
<path d="M15.0117 2.16821C15.3398 3.31665 15.3398 5.77759 15.3398 5.77759C15.3398 5.77759 15.3398 8.21118 15.0117 9.38696C14.8477 10.0432 14.3281 10.5354 13.6992 10.6995C12.5234 11.0002 7.875 11.0002 7.875 11.0002C7.875 11.0002 3.19922 11.0002 2.02344 10.6995C1.39453 10.5354 0.875 10.0432 0.710938 9.38696C0.382812 8.21118 0.382812 5.77759 0.382812 5.77759C0.382812 5.77759 0.382812 3.31665 0.710938 2.16821C0.875 1.51196 1.39453 0.992432 2.02344 0.828369C3.19922 0.500244 7.875 0.500244 7.875 0.500244C7.875 0.500244 12.5234 0.500244 13.6992 0.828369C14.3281 0.992432 14.8477 1.51196 15.0117 2.16821ZM6.34375 7.99243L10.2266 5.77759L6.34375 3.56274V7.99243Z" fill="#82869A"/>
</svg>
